<svg width="56" height="52" viewBox="0 0 56 52" fill="none" xmlns="http://www.w3.org/2000/svg">
<path d="M37.7256 7.033L31.3862 0.754C30.9006 0.273 30.2312 0 29.5356 0H20.125C18.6812 0 17.5131 1.17 17.5131 2.6L17.5 23.4C17.5 24.83 18.6681 26 20.1119 26H35.875C37.3188 26 38.5 24.83 38.5 23.4V8.879C38.5 8.19 38.2244 7.527 37.7256 7.033ZM31.675 16.9H29.3125V20.8C29.3125 21.515 28.7219 22.1 28 22.1C27.2781 22.1 26.6875 21.515 26.6875 20.8V16.9H24.3381C23.7475 16.9 23.4587 16.198 23.8787 15.795L27.5538 12.168C27.8162 11.921 28.2231 11.921 28.4856 12.168L32.1475 15.795C32.5413 16.198 32.2525 16.9 31.675 16.9ZM30.625 9.1C29.9031 9.1 29.3125 8.515 29.3125 7.8V1.95L36.5312 9.1H30.625Z" fill="#4381FF"/>
<path d="M5.15 42.42C5.54333 42.4933 5.86667 42.69 6.12 43.01C6.37333 43.33 6.5 43.6967 6.5 44.11C6.5 44.4833 6.40667 44.8133 6.22 45.1C6.04 45.38 5.77667 45.6 5.43 45.76C5.08333 45.92 4.67333 46 4.2 46H1.19V39.02H4.07C4.54333 39.02 4.95 39.0967 5.29 39.25C5.63667 39.4033 5.89667 39.6167 6.07 39.89C6.25 40.1633 6.34 40.4733 6.34 40.82C6.34 41.2267 6.23 41.5667 6.01 41.84C5.79667 42.1133 5.51 42.3067 5.15 42.42ZM2.59 41.9H3.87C4.20333 41.9 4.46 41.8267 4.64 41.68C4.82 41.5267 4.91 41.31 4.91 41.03C4.91 40.75 4.82 40.5333 4.64 40.38C4.46 40.2267 4.20333 40.15 3.87 40.15H2.59V41.9ZM4 44.86C4.34 44.86 4.60333 44.78 4.79 44.62C4.98333 44.46 5.08 44.2333 5.08 43.94C5.08 43.64 4.98 43.4067 4.78 43.24C4.58 43.0667 4.31 42.98 3.97 42.98H2.59V44.86H4ZM8.81578 41.32C8.99578 41.0267 9.22911 40.7967 9.51578 40.63C9.80911 40.4633 10.1424 40.38 10.5158 40.38V41.85H10.1458C9.70578 41.85 9.37245 41.9533 9.14578 42.16C8.92578 42.3667 8.81578 42.7267 8.81578 43.24V46H7.41578V40.46H8.81578V41.32ZM13.7188 46.09C13.1854 46.09 12.7054 45.9733 12.2788 45.74C11.8521 45.5 11.5154 45.1633 11.2688 44.73C11.0288 44.2967 10.9088 43.7967 10.9088 43.23C10.9088 42.6633 11.0321 42.1633 11.2788 41.73C11.5321 41.2967 11.8754 40.9633 12.3088 40.73C12.7421 40.49 13.2254 40.37 13.7588 40.37C14.2921 40.37 14.7754 40.49 15.2088 40.73C15.6421 40.9633 15.9821 41.2967 16.2288 41.73C16.4821 42.1633 16.6088 42.6633 16.6088 43.23C16.6088 43.7967 16.4788 44.2967 16.2188 44.73C15.9654 45.1633 15.6188 45.5 15.1788 45.74C14.7454 45.9733 14.2588 46.09 13.7188 46.09ZM13.7188 44.87C13.9721 44.87 14.2088 44.81 14.4288 44.69C14.6554 44.5633 14.8354 44.3767 14.9688 44.13C15.1021 43.8833 15.1688 43.5833 15.1688 43.23C15.1688 42.7033 15.0288 42.3 14.7488 42.02C14.4754 41.7333 14.1388 41.59 13.7388 41.59C13.3388 41.59 13.0021 41.7333 12.7288 42.02C12.4621 42.3 12.3288 42.7033 12.3288 43.23C12.3288 43.7567 12.4588 44.1633 12.7188 44.45C12.9854 44.73 13.3188 44.87 13.7188 44.87ZM25.1157 40.46L23.4957 46H21.9857L20.9757 42.13L19.9657 46H18.4457L16.8157 40.46H18.2357L19.2157 44.68L20.2757 40.46H21.7557L22.7957 44.67L23.7757 40.46H25.1157ZM27.7932 46.09C27.3399 46.09 26.9332 46.01 26.5732 45.85C26.2132 45.6833 25.9265 45.46 25.7132 45.18C25.5065 44.9 25.3932 44.59 25.3732 44.25H26.7832C26.8099 44.4633 26.9132 44.64 27.0932 44.78C27.2799 44.92 27.5099 44.99 27.7832 44.99C28.0499 44.99 28.2565 44.9367 28.4032 44.83C28.5565 44.7233 28.6332 44.5867 28.6332 44.42C28.6332 44.24 28.5399 44.1067 28.3532 44.02C28.1732 43.9267 27.8832 43.8267 27.4832 43.72C27.0699 43.62 26.7299 43.5167 26.4632 43.41C26.2032 43.3033 25.9765 43.14 25.7832 42.92C25.5965 42.7 25.5032 42.4033 25.5032 42.03C25.5032 41.7233 25.5899 41.4433 25.7632 41.19C25.9432 40.9367 26.1965 40.7367 26.5232 40.59C26.8565 40.4433 27.2465 40.37 27.6932 40.37C28.3532 40.37 28.8799 40.5367 29.2732 40.87C29.6665 41.1967 29.8832 41.64 29.9232 42.2H28.5832C28.5632 41.98 28.4699 41.8067 28.3032 41.68C28.1432 41.5467 27.9265 41.48 27.6532 41.48C27.3999 41.48 27.2032 41.5267 27.0632 41.62C26.9299 41.7133 26.8632 41.8433 26.8632 42.01C26.8632 42.1967 26.9565 42.34 27.1432 42.44C27.3299 42.5333 27.6199 42.63 28.0132 42.73C28.4132 42.83 28.7432 42.9333 29.0032 43.04C29.2632 43.1467 29.4865 43.3133 29.6732 43.54C29.8665 43.76 29.9665 44.0533 29.9732 44.42C29.9732 44.74 29.8832 45.0267 29.7032 45.28C29.5299 45.5333 29.2765 45.7333 28.9432 45.88C28.6165 46.02 28.2332 46.09 27.7932 46.09ZM36.0724 43.11C36.0724 43.31 36.0591 43.49 36.0324 43.65H31.9824C32.0158 44.05 32.1558 44.3633 32.4024 44.59C32.6491 44.8167 32.9524 44.93 33.3124 44.93C33.8324 44.93 34.2024 44.7067 34.4224 44.26H35.9324C35.7724 44.7933 35.4658 45.2333 35.0124 45.58C34.5591 45.92 34.0024 46.09 33.3424 46.09C32.8091 46.09 32.3291 45.9733 31.9024 45.74C31.4824 45.5 31.1524 45.1633 30.9124 44.73C30.6791 44.2967 30.5624 43.7967 30.5624 43.23C30.5624 42.6567 30.6791 42.1533 30.9124 41.72C31.1458 41.2867 31.4724 40.9533 31.8924 40.72C32.3124 40.4867 32.7958 40.37 33.3424 40.37C33.8691 40.37 34.3391 40.4833 34.7524 40.71C35.1724 40.9367 35.4958 41.26 35.7224 41.68C35.9558 42.0933 36.0724 42.57 36.0724 43.11ZM34.6224 42.71C34.6158 42.35 34.4858 42.0633 34.2324 41.85C33.9791 41.63 33.6691 41.52 33.3024 41.52C32.9558 41.52 32.6624 41.6267 32.4224 41.84C32.1891 42.0467 32.0458 42.3367 31.9924 42.71H34.6224ZM43.3871 39.02V40.15H40.4771V41.94H42.7071V43.05H40.4771V46H39.0771V39.02H43.3871ZM44.8898 39.8C44.6432 39.8 44.4365 39.7233 44.2698 39.57C44.1098 39.41 44.0298 39.2133 44.0298 38.98C44.0298 38.7467 44.1098 38.5533 44.2698 38.4C44.4365 38.24 44.6432 38.16 44.8898 38.16C45.1365 38.16 45.3398 38.24 45.4998 38.4C45.6665 38.5533 45.7498 38.7467 45.7498 38.98C45.7498 39.2133 45.6665 39.41 45.4998 39.57C45.3398 39.7233 45.1365 39.8 44.8898 39.8ZM45.5798 40.46V46H44.1798V40.46H45.5798ZM48.163 38.6V46H46.763V38.6H48.163ZM54.4963 43.11C54.4963 43.31 54.4829 43.49 54.4563 43.65H50.4063C50.4396 44.05 50.5796 44.3633 50.8263 44.59C51.0729 44.8167 51.3763 44.93 51.7363 44.93C52.2563 44.93 52.6263 44.7067 52.8463 44.26H54.3563C54.1963 44.7933 53.8896 45.2333 53.4363 45.58C52.9829 45.92 52.4263 46.09 51.7663 46.09C51.2329 46.09 50.7529 45.9733 50.3263 45.74C49.9063 45.5 49.5763 45.1633 49.3363 44.73C49.1029 44.2967 48.9862 43.7967 48.9862 43.23C48.9862 42.6567 49.1029 42.1533 49.3363 41.72C49.5696 41.2867 49.8963 40.9533 50.3163 40.72C50.7363 40.4867 51.2196 40.37 51.7663 40.37C52.2929 40.37 52.7629 40.4833 53.1763 40.71C53.5963 40.9367 53.9196 41.26 54.1463 41.68C54.3796 42.0933 54.4963 42.57 54.4963 43.11ZM53.0463 42.71C53.0396 42.35 52.9096 42.0633 52.6563 41.85C52.4029 41.63 52.0929 41.52 51.7263 41.52C51.3796 41.52 51.0863 41.6267 50.8463 41.84C50.6129 42.0467 50.4696 42.3367 50.4163 42.71H53.0463Z" fill="#A0A0A0"/>
</svg>
