<svg width="102" height="124" viewBox="0 0 102 124" fill="none" xmlns="http://www.w3.org/2000/svg">
<path d="M51 0C22.8481 0 0.0263672 21.3334 0.0263672 47.6493C0.0263672 73.9651 22.8481 95.2985 51 95.2985C79.1519 95.2985 101.974 73.9651 101.974 47.6493C101.974 21.3334 79.1519 0 51 0Z" fill="#4381FF"/>
<path d="M74.4403 32.1963L39.4914 63.1282L27.5939 52.0066" stroke="white" stroke-width="8.5008" stroke-linecap="round"/>
<path d="M19.9866 119.666C19.2079 119.666 18.5039 119.532 17.8746 119.266C17.2559 118.999 16.7653 118.615 16.4026 118.114C16.0399 117.612 15.8533 117.02 15.8426 116.338H18.2426C18.2746 116.796 18.4346 117.159 18.7226 117.426C19.0213 117.692 19.4266 117.826 19.9386 117.826C20.4613 117.826 20.8719 117.703 21.1706 117.458C21.4693 117.202 21.6186 116.871 21.6186 116.466C21.6186 116.135 21.5173 115.863 21.3146 115.65C21.1119 115.436 20.8559 115.271 20.5466 115.154C20.2479 115.026 19.8319 114.887 19.2986 114.738C18.5733 114.524 17.9813 114.316 17.5226 114.114C17.0746 113.9 16.6853 113.586 16.3546 113.17C16.0346 112.743 15.8746 112.178 15.8746 111.474C15.8746 110.812 16.0399 110.236 16.3706 109.746C16.7013 109.255 17.1653 108.882 17.7626 108.626C18.3599 108.359 19.0426 108.226 19.8106 108.226C20.9626 108.226 21.8959 108.508 22.6106 109.074C23.3359 109.628 23.7359 110.407 23.8106 111.41H21.3466C21.3253 111.026 21.1599 110.711 20.8506 110.466C20.5519 110.21 20.1519 110.082 19.6506 110.082C19.2133 110.082 18.8613 110.194 18.5946 110.418C18.3386 110.642 18.2106 110.967 18.2106 111.394C18.2106 111.692 18.3066 111.943 18.4986 112.146C18.7013 112.338 18.9466 112.498 19.2346 112.626C19.5333 112.743 19.9493 112.882 20.4826 113.042C21.2079 113.255 21.7999 113.468 22.2586 113.682C22.7173 113.895 23.1119 114.215 23.4426 114.642C23.7733 115.068 23.9386 115.628 23.9386 116.322C23.9386 116.919 23.7839 117.474 23.4746 117.986C23.1653 118.498 22.7119 118.908 22.1146 119.218C21.5173 119.516 20.8079 119.666 19.9866 119.666ZM33.9286 110.69V119.554H31.6726V118.434C31.3846 118.818 31.0059 119.122 30.5366 119.346C30.0779 119.559 29.5766 119.666 29.0326 119.666C28.3393 119.666 27.7259 119.522 27.1926 119.234C26.6593 118.935 26.2379 118.503 25.9286 117.938C25.6299 117.362 25.4806 116.679 25.4806 115.89V110.69H27.7206V115.57C27.7206 116.274 27.8966 116.818 28.2486 117.202C28.6006 117.575 29.0806 117.762 29.6886 117.762C30.3073 117.762 30.7926 117.575 31.1446 117.202C31.4966 116.818 31.6726 116.274 31.6726 115.57V110.69H33.9286ZM35.2427 115.122C35.2427 114.204 35.4294 113.404 35.8027 112.722C36.1761 112.028 36.6934 111.495 37.3547 111.122C38.0161 110.738 38.7734 110.546 39.6267 110.546C40.7254 110.546 41.6321 110.823 42.3467 111.378C43.0721 111.922 43.5574 112.69 43.8027 113.682H41.3867C41.2587 113.298 41.0401 112.999 40.7307 112.786C40.4321 112.562 40.0587 112.45 39.6107 112.45C38.9707 112.45 38.4641 112.684 38.0907 113.154C37.7174 113.612 37.5307 114.268 37.5307 115.122C37.5307 115.964 37.7174 116.62 38.0907 117.09C38.4641 117.548 38.9707 117.778 39.6107 117.778C40.5174 117.778 41.1094 117.372 41.3867 116.562H43.8027C43.5574 117.522 43.0721 118.284 42.3467 118.85C41.6214 119.415 40.7147 119.698 39.6267 119.698C38.7734 119.698 38.0161 119.511 37.3547 119.138C36.6934 118.754 36.1761 118.22 35.8027 117.538C35.4294 116.844 35.2427 116.039 35.2427 115.122ZM44.5477 115.122C44.5477 114.204 44.7344 113.404 45.1077 112.722C45.4811 112.028 45.9984 111.495 46.6597 111.122C47.3211 110.738 48.0784 110.546 48.9317 110.546C50.0304 110.546 50.9371 110.823 51.6517 111.378C52.3771 111.922 52.8624 112.69 53.1077 113.682H50.6917C50.5637 113.298 50.3451 112.999 50.0357 112.786C49.7371 112.562 49.3637 112.45 48.9157 112.45C48.2757 112.45 47.7691 112.684 47.3957 113.154C47.0224 113.612 46.8357 114.268 46.8357 115.122C46.8357 115.964 47.0224 116.62 47.3957 117.09C47.7691 117.548 48.2757 117.778 48.9157 117.778C49.8224 117.778 50.4144 117.372 50.6917 116.562H53.1077C52.8624 117.522 52.3771 118.284 51.6517 118.85C50.9264 119.415 50.0197 119.698 48.9317 119.698C48.0784 119.698 47.3211 119.511 46.6597 119.138C45.9984 118.754 45.4811 118.22 45.1077 117.538C44.7344 116.844 44.5477 116.039 44.5477 115.122ZM62.6687 114.93C62.6687 115.25 62.6474 115.538 62.6047 115.794H56.1247C56.1781 116.434 56.4021 116.935 56.7967 117.298C57.1914 117.66 57.6767 117.842 58.2527 117.842C59.0847 117.842 59.6767 117.484 60.0287 116.77H62.4447C62.1887 117.623 61.6981 118.327 60.9727 118.882C60.2474 119.426 59.3567 119.698 58.3007 119.698C57.4474 119.698 56.6794 119.511 55.9967 119.138C55.3247 118.754 54.7967 118.215 54.4127 117.522C54.0394 116.828 53.8527 116.028 53.8527 115.122C53.8527 114.204 54.0394 113.399 54.4127 112.706C54.7861 112.012 55.3087 111.479 55.9807 111.106C56.6527 110.732 57.4261 110.546 58.3007 110.546C59.1434 110.546 59.8954 110.727 60.5567 111.09C61.2287 111.452 61.7461 111.97 62.1087 112.642C62.4821 113.303 62.6687 114.066 62.6687 114.93ZM60.3487 114.29C60.3381 113.714 60.1301 113.255 59.7247 112.914C59.3194 112.562 58.8234 112.386 58.2367 112.386C57.6821 112.386 57.2127 112.556 56.8287 112.898C56.4554 113.228 56.2261 113.692 56.1407 114.29H60.3487ZM67.3757 119.698C66.6504 119.698 65.9997 119.57 65.4237 119.314C64.8477 119.047 64.3891 118.69 64.0477 118.242C63.7171 117.794 63.5357 117.298 63.5037 116.754H65.7597C65.8024 117.095 65.9677 117.378 66.2557 117.602C66.5544 117.826 66.9224 117.938 67.3597 117.938C67.7864 117.938 68.1171 117.852 68.3517 117.682C68.5971 117.511 68.7197 117.292 68.7197 117.026C68.7197 116.738 68.5704 116.524 68.2717 116.386C67.9837 116.236 67.5197 116.076 66.8797 115.906C66.2184 115.746 65.6744 115.58 65.2477 115.41C64.8317 115.239 64.4691 114.978 64.1597 114.626C63.8611 114.274 63.7117 113.799 63.7117 113.202C63.7117 112.711 63.8504 112.263 64.1277 111.858C64.4157 111.452 64.8211 111.132 65.3437 110.898C65.8771 110.663 66.5011 110.546 67.2157 110.546C68.2717 110.546 69.1144 110.812 69.7437 111.346C70.3731 111.868 70.7197 112.578 70.7837 113.474H68.6397C68.6077 113.122 68.4584 112.844 68.1917 112.642C67.9357 112.428 67.5891 112.322 67.1517 112.322C66.7464 112.322 66.4317 112.396 66.2077 112.546C65.9944 112.695 65.8877 112.903 65.8877 113.17C65.8877 113.468 66.0371 113.698 66.3357 113.858C66.6344 114.007 67.0984 114.162 67.7277 114.322C68.3677 114.482 68.8957 114.647 69.3117 114.818C69.7277 114.988 70.0851 115.255 70.3837 115.618C70.6931 115.97 70.8531 116.439 70.8637 117.026C70.8637 117.538 70.7197 117.996 70.4317 118.402C70.1544 118.807 69.7491 119.127 69.2157 119.362C68.6931 119.586 68.0797 119.698 67.3757 119.698ZM75.7745 119.698C75.0492 119.698 74.3985 119.57 73.8225 119.314C73.2465 119.047 72.7878 118.69 72.4465 118.242C72.1158 117.794 71.9345 117.298 71.9025 116.754H74.1585C74.2012 117.095 74.3665 117.378 74.6545 117.602C74.9532 117.826 75.3212 117.938 75.7585 117.938C76.1852 117.938 76.5158 117.852 76.7505 117.682C76.9958 117.511 77.1185 117.292 77.1185 117.026C77.1185 116.738 76.9692 116.524 76.6705 116.386C76.3825 116.236 75.9185 116.076 75.2785 115.906C74.6172 115.746 74.0732 115.58 73.6465 115.41C73.2305 115.239 72.8678 114.978 72.5585 114.626C72.2598 114.274 72.1105 113.799 72.1105 113.202C72.1105 112.711 72.2492 112.263 72.5265 111.858C72.8145 111.452 73.2198 111.132 73.7425 110.898C74.2758 110.663 74.8998 110.546 75.6145 110.546C76.6705 110.546 77.5132 110.812 78.1425 111.346C78.7718 111.868 79.1185 112.578 79.1825 113.474H77.0385C77.0065 113.122 76.8572 112.844 76.5905 112.642C76.3345 112.428 75.9878 112.322 75.5505 112.322C75.1452 112.322 74.8305 112.396 74.6065 112.546C74.3932 112.695 74.2865 112.903 74.2865 113.17C74.2865 113.468 74.4358 113.698 74.7345 113.858C75.0332 114.007 75.4972 114.162 76.1265 114.322C76.7665 114.482 77.2945 114.647 77.7105 114.818C78.1265 114.988 78.4838 115.255 78.7825 115.618C79.0918 115.97 79.2518 116.439 79.2625 117.026C79.2625 117.538 79.1185 117.996 78.8305 118.402C78.5532 118.807 78.1478 119.127 77.6145 119.362C77.0918 119.586 76.4785 119.698 75.7745 119.698ZM83.6772 108.194L83.4212 115.922H81.5332L81.2612 108.194H83.6772ZM82.5252 119.666C82.1199 119.666 81.7839 119.543 81.5172 119.298C81.2612 119.042 81.1332 118.727 81.1332 118.354C81.1332 117.98 81.2612 117.671 81.5172 117.426C81.7839 117.17 82.1199 117.042 82.5252 117.042C82.9199 117.042 83.2452 117.17 83.5012 117.426C83.7572 117.671 83.8852 117.98 83.8852 118.354C83.8852 118.727 83.7572 119.042 83.5012 119.298C83.2452 119.543 82.9199 119.666 82.5252 119.666Z" fill="#4381FF"/>
</svg>
